<svg width="452" height="350" viewBox="0 0 452 350" fill="none" xmlns="http://www.w3.org/2000/svg">
<rect y="16.3333" width="400" height="232" rx="16" fill="#F51E38"/>
<rect y="35.3333" width="400" height="55" fill="#423B3B"/>
<path d="M18.5 112.833C18.5 109.52 21.1863 106.833 24.5 106.833H112.5C115.814 106.833 118.5 109.52 118.5 112.833C118.5 116.147 115.814 118.833 112.5 118.833H24.5C21.1863 118.833 18.5 116.147 18.5 112.833Z" fill="white"/>
<path d="M19 135.333C19 132.02 21.6863 129.333 25 129.333H50C53.3137 129.333 56 132.02 56 135.333C56 138.647 53.3137 141.333 50 141.333H25C21.6863 141.333 19 138.647 19 135.333Z" fill="white"/>
<path d="M127 112.333C127 109.02 129.686 106.333 133 106.333H150C153.314 106.333 156 109.02 156 112.333C156 115.647 153.314 118.333 150 118.333H133C129.686 118.333 127 115.647 127 112.333Z" fill="white"/>
<path d="M61 135.333C61 132.02 63.6863 129.333 67 129.333H84C87.3137 129.333 90 132.02 90 135.333C90 138.647 87.3137 141.333 84 141.333H67C63.6863 141.333 61 138.647 61 135.333Z" fill="white"/>
<path d="M19 157.333C19 154.02 21.6863 151.333 25 151.333H35C38.3137 151.333 41 154.02 41 157.333C41 160.647 38.3137 163.333 35 163.333H25C21.6863 163.333 19 160.647 19 157.333Z" fill="white"/>
<path d="M418.333 116.667H401.667V83.3333C401.667 37.3333 364.333 0 318.333 0C272.333 0 235 37.3333 235 83.3333V116.667H218.333C200 116.667 185 131.667 185 150V316.667C185 335 200 350 218.333 350H418.333C436.667 350 451.667 335 451.667 316.667V150C451.667 131.667 436.667 116.667 418.333 116.667ZM318.333 266.667C300 266.667 285 251.667 285 233.333C285 215 300 200 318.333 200C336.667 200 351.667 215 351.667 233.333C351.667 251.667 336.667 266.667 318.333 266.667ZM370 116.667H266.667V83.3333C266.667 54.8333 289.833 31.6667 318.333 31.6667C346.833 31.6667 370 54.8333 370 83.3333V116.667Z" fill="white"/>
</svg>
