<svg width="18" height="18" viewBox="0 0 18 18" fill="none" xmlns="http://www.w3.org/2000/svg">
<path d="M8.99996 3.5625C10.3275 3.5625 11.5162 4.02 12.4537 4.9125L15.0225 2.34375C13.4625 0.8925 11.4262 0 8.99996 0C5.48246 0 2.44121 2.0175 0.959961 4.9575L3.95246 7.27875C4.66121 5.145 6.65246 3.5625 8.99996 3.5625Z" fill="#EA4335"/>
<path d="M17.6175 9.20625C17.6175 8.6175 17.5612 8.0475 17.475 7.5H9V10.8825H13.8525C13.635 11.9925 13.005 12.9375 12.06 13.575L14.9588 15.825C16.65 14.2575 17.6175 11.94 17.6175 9.20625Z" fill="#4285F4"/>
<path d="M3.94875 10.7213C3.76875 10.1775 3.66375 9.6 3.66375 9C3.66375 8.4 3.765 7.8225 3.94875 7.27875L0.95625 4.9575C0.345 6.1725 0 7.545 0 9C0 10.455 0.345 11.8275 0.96 13.0425L3.94875 10.7213Z" fill="#FBBC05"/>
<path d="M9.00005 18C11.43 18 13.4738 17.2012 14.9588 15.8212L12.06 13.5712C11.2538 14.115 10.215 14.4337 9.00005 14.4337C6.65255 14.4337 4.6613 12.8512 3.9488 10.7175L0.956299 13.0387C2.4413 15.9825 5.48255 18 9.00005 18Z" fill="#34A853"/>
</svg>
