<svg width="130" height="35" viewBox="0 0 130 35" fill="none" xmlns="http://www.w3.org/2000/svg">
<path d="M7.032 28.672H18.072V34H0.312V0.495999H7.032V28.672ZM37.8953 34.336C34.7593 34.336 31.8793 33.6 29.2553 32.128C26.6313 30.656 24.5513 28.624 23.0153 26.032C21.4793 23.408 20.7113 20.448 20.7113 17.152C20.7113 13.888 21.4793 10.96 23.0153 8.368C24.5513 5.744 26.6313 3.696 29.2553 2.224C31.8793 0.751999 34.7593 0.0159998 37.8953 0.0159998C41.0633 0.0159998 43.9433 0.751999 46.5353 2.224C49.1593 3.696 51.2233 5.744 52.7273 8.368C54.2633 10.96 55.0313 13.888 55.0313 17.152C55.0313 20.448 54.2633 23.408 52.7273 26.032C51.2233 28.624 49.1593 30.656 46.5353 32.128C43.9113 33.6 41.0313 34.336 37.8953 34.336ZM37.8953 28.336C39.9113 28.336 41.6873 27.888 43.2233 26.992C44.7593 26.064 45.9593 24.752 46.8233 23.056C47.6873 21.36 48.1193 19.392 48.1193 17.152C48.1193 14.912 47.6873 12.96 46.8233 11.296C45.9593 9.6 44.7593 8.304 43.2233 7.408C41.6873 6.512 39.9113 6.064 37.8953 6.064C35.8793 6.064 34.0873 6.512 32.5193 7.408C30.9833 8.304 29.7833 9.6 28.9193 11.296C28.0553 12.96 27.6233 14.912 27.6233 17.152C27.6233 19.392 28.0553 21.36 28.9193 23.056C29.7833 24.752 30.9833 26.064 32.5193 26.992C34.0873 27.888 35.8793 28.336 37.8953 28.336ZM83.3588 10.576C82.5908 9.168 81.5348 8.096 80.1908 7.36C78.8468 6.624 77.2788 6.256 75.4868 6.256C73.5028 6.256 71.7428 6.704 70.2068 7.6C68.6708 8.496 67.4708 9.776 66.6068 11.44C65.7428 13.104 65.3108 15.024 65.3108 17.2C65.3108 19.44 65.7428 21.392 66.6068 23.056C67.5028 24.72 68.7348 26 70.3028 26.896C71.8708 27.792 73.6948 28.24 75.7748 28.24C78.3348 28.24 80.4308 27.568 82.0627 26.224C83.6948 24.848 84.7668 22.944 85.2788 20.512H73.7588V15.376H91.9028V21.232C91.4548 23.568 90.4948 25.728 89.0228 27.712C87.5508 29.696 85.6468 31.296 83.3108 32.512C81.0068 33.696 78.4148 34.288 75.5348 34.288C72.3028 34.288 69.3748 33.568 66.7508 32.128C64.1588 30.656 62.1108 28.624 60.6068 26.032C59.1348 23.44 58.3988 20.496 58.3988 17.2C58.3988 13.904 59.1348 10.96 60.6068 8.368C62.1108 5.744 64.1588 3.712 66.7508 2.272C69.3748 0.799999 72.2868 0.0639992 75.4868 0.0639992C79.2628 0.0639992 82.5428 0.991999 85.3268 2.848C88.1108 4.672 90.0308 7.248 91.0868 10.576H83.3588ZM112.427 34.336C109.291 34.336 106.411 33.6 103.787 32.128C101.163 30.656 99.0825 28.624 97.5465 26.032C96.0105 23.408 95.2425 20.448 95.2425 17.152C95.2425 13.888 96.0105 10.96 97.5465 8.368C99.0825 5.744 101.163 3.696 103.787 2.224C106.411 0.751999 109.291 0.0159998 112.427 0.0159998C115.595 0.0159998 118.475 0.751999 121.067 2.224C123.691 3.696 125.755 5.744 127.259 8.368C128.795 10.96 129.563 13.888 129.563 17.152C129.563 20.448 128.795 23.408 127.259 26.032C125.755 28.624 123.691 30.656 121.067 32.128C118.443 33.6 115.563 34.336 112.427 34.336ZM112.427 28.336C114.443 28.336 116.219 27.888 117.755 26.992C119.291 26.064 120.491 24.752 121.355 23.056C122.219 21.36 122.651 19.392 122.651 17.152C122.651 14.912 122.219 12.96 121.355 11.296C120.491 9.6 119.291 8.304 117.755 7.408C116.219 6.512 114.443 6.064 112.427 6.064C110.411 6.064 108.619 6.512 107.051 7.408C105.515 8.304 104.315 9.6 103.451 11.296C102.587 12.96 102.155 14.912 102.155 17.152C102.155 19.392 102.587 21.36 103.451 23.056C104.315 24.752 105.515 26.064 107.051 26.992C108.619 27.888 110.411 28.336 112.427 28.336Z" fill="white"/>
</svg>
